<svg id="BG" xmlns="http://www.w3.org/2000/svg" xmlns:xlink="http://www.w3.org/1999/xlink" viewBox="0 0 554.11 554.11"><defs><style>.cls-1,.cls-9{fill:#edb2cb;}.cls-1,.cls-2,.cls-3,.cls-5{clip-rule:evenodd;}.cls-11,.cls-2{fill:#f9b233;}.cls-15,.cls-20,.cls-3{fill:#f49600;}.cls-4{fill:none;}.cls-24,.cls-5{fill:#c74775;}.cls-6{fill:#113c2b;}.cls-29,.cls-7{fill:#fff;}.cls-8{fill:#c8a800;}.cls-11,.cls-13,.cls-14,.cls-15,.cls-17,.cls-18,.cls-22,.cls-24,.cls-26,.cls-27,.cls-28,.cls-29,.cls-9{fill-rule:evenodd;}.cls-10{clip-path:url(#clip-path);}.cls-12{clip-path:url(#clip-path-2);}.cls-13,.cls-19{fill:#a80057;}.cls-14{fill:#fccf95;}.cls-16{clip-path:url(#clip-path-3);}.cls-17{fill:#d15780;}.cls-18{fill:#fcc14f;}.cls-21{clip-path:url(#clip-path-4);}.cls-22{fill:#df89ac;}.cls-23{clip-path:url(#clip-path-5);}.cls-25{clip-path:url(#clip-path-6);}.cls-26{fill:#9c9980;}.cls-27{fill:#bccec5;}.cls-28{fill:#e5ebe5;}</style><clipPath id="clip-path" transform="translate(-125.12 -121.71)"><path class="cls-1" d="M296.41,326s71.4-.84,90.88-6.54,8.55-8.67,34.57-11.52,40.39-3.56,69.26,5.82,52.63,17.93,60.59,36.71S561.81,378,561.81,378s44.79,8.8,56.31,26,5.11,41.1,0,50.49-15.8,25.9-18.77,16.51,8.67-15.22-2.26-24.47c-3.29-2.79-4.14,1.46-17.66,7.68s-65.26-11.24-65.26-11.24-8.38,4.71-12.95,7.84c-25.74,17.63-87,12.59-108.26,12.59-62.93,0-92.15,38.74-108.07,32.2s-29.58-62.72-28.16-90.17-20.64-64.33-16.24-70.15S296.41,326,296.41,326Z"/></clipPath><clipPath id="clip-path-2" transform="translate(-125.12 -121.71)"><path class="cls-2" d="M510.81,397.75s0.07-2-2.69,8.37,0.36,21.26-5.12,40.39c-6.17,21.58,20.66,12.13,38.41,14.27s39.17,5.82,46.82-6.42,16.83-15.6,11-20.2S510.81,397.75,510.81,397.75Z"/></clipPath><clipPath id="clip-path-3" transform="translate(-125.12 -121.71)"><path class="cls-3" d="M597.18,478.23s3.49-19.65.58-27.72-2.7-5.4-8.43-10.93S560.86,429,544.94,422a161,161,0,0,1-32.36-18.87c-4-3.2-1.65-23.12.55-43.32,1-8.92,13.33,6.52,28.09,1.65s40.91,6.85,53.63,15.2,41.85,24.27,41,41.56-3.2,37.19-13.59,46.71S597.18,478.23,597.18,478.23Z"/></clipPath><clipPath id="clip-path-4" transform="translate(-125.12 -121.71)"><circle class="cls-4" cx="461.59" cy="345.19" r="14.64"/></clipPath><clipPath id="clip-path-5" transform="translate(-125.12 -121.71)"><path class="cls-1" d="M537.74,364.4s-21.85,2.76-39.84-7.89S467.61,331.17,457.51,329s-15.23-.93-29.74-3.86-15.06-5-24.06-8.44-7.89-1.65-7.89-1.65,2.21-5.13,22.4-7.89,30.47-7.89,57.28,0,58.93,19.26,69.58,38.19,20.58,27.92,16.16,34.15S537.74,364.4,537.74,364.4Z"/></clipPath><clipPath id="clip-path-6" transform="translate(-125.12 -121.71)"><path class="cls-5" d="M466.46,318.22s-5.62-1.32-7.51-8.54c-3.36-12.9-5.18-19.42,7.25-26.93s34.18-6,46.87,1.55,18.38,11.39,32.88,27.71,20.71,18.38,30.29,28.48,8.54,14,9.06,24.6,1.7,19.86,1.7,19.86-13-5.28-16.79,2.41c-3,6.11-11.83,4.4-21.93-2.07s-14-12.43-17.61-24.6-1-16.83-18.12-23.82S466.46,318.22,466.46,318.22Z"/></clipPath></defs><title>condor-logo</title><circle class="cls-6" cx="277.05" cy="277.05" r="277.05"/><circle class="cls-7" cx="277.05" cy="277.05" r="250.15"/><circle class="cls-8" cx="277.05" cy="277.05" r="241.19"/><path class="cls-7" d="M384.66,495.06a14.27,14.27,0,0,1,0,9.45c-0.54,1.81-1.46,3.85-2.06,6.47a19.77,19.77,0,0,0-.15,7.85c4.7,26.88-10.56,41-29.86,52.33-1.44,23.43-5.84,43.65-13.43,60.48C236.52,603.93,161,510.17,161,398.76A240.08,240.08,0,0,1,203.51,262a123.2,123.2,0,0,1,47.78,10.3c12.78-.19,28.6,2.63,45.81,7.22,10.65-1.87,19,.86,26.29,5.53a83,83,0,0,1,10.13,8c3,2.69,6.07,5.57,9.38,8.37,5,4.25,9.08,8.16,11.54,11.84a20.07,20.07,0,0,1,1.78,3.25c12.75-1,23.59-2.23,29.06-3.83a45.42,45.42,0,0,0,8.62-3.26c2-1,3.12-2,4.48-2.8,4.37-2.68,9.48-4.26,22.71-5.71,10.5-1.15,19.44-2,28.35-1.92-0.69-8.2,1.79-15.52,13.06-22.33,15.15-9.15,39.77-7,54.23,1.52,13.3,7.87,19.58,12.22,34.59,29.11a142.11,142.11,0,0,0,16.23,15.83c2.31,1.94,4.47,3.68,6.66,5.57a99.62,99.62,0,0,1,7.24,6.9c5.17,5.45,8.18,9.94,9.63,15.1a33.38,33.38,0,0,1,1.1,7.09c0.13,2,.16,4.31.29,7,0.2,4,.73,9.7,1.3,15.11,11.39,4.4,24.15,10.94,30.32,20.15,13.73,20.53,5.95,47.61.34,57.91-2.62,4.81-6.88,11.87-11.13,16.64-1.84,2.06-4.89,5.14-8.73,6.1-6.62,1.65-10.67-3.14-12-7.49a18.63,18.63,0,0,1-.19-10.39c0.54-2.14,1.41-4.17,2-6.19a3.83,3.83,0,0,0,.32-1.94,2.28,2.28,0,0,0-.37-0.73,81.64,81.64,0,0,1-11.87,6.8c-5.39,2.48-13,2.23-19.69,1.47A188.81,188.81,0,0,1,540,457.86c-10-2.46-19.3-5.28-24.3-6.86,0.43,0.88-1.57,3.85-4.3,6.82a18.84,18.84,0,0,1-11,6.16,24.07,24.07,0,0,1-4.82.26c-1.17,0-2.32-.15-3.46-0.22-2-.12-2.37.06-2.49,0.13a15.43,15.43,0,0,0-2.22,3.31c-4.1,9.18-9.07,13.63-17.58,14.74-5.44.71-13.1-.15-25.41,1.11-5.71.58-7.79,1.53-8.47,2a21.53,21.53,0,0,0-1.3,1.88c-3.22,5.9-7.87,9.86-22.84,11.25a62.72,62.72,0,0,1-17.56-.57A55.8,55.8,0,0,1,384.66,495.06Z" transform="translate(-125.12 -121.71)"/><path class="cls-6" d="M198.76,269.12q40.46-.52,71.4,22.45l75.58,250.3q1.87,54.4-13.55,87.77c-99.07-30-171.2-122-171.2-230.88A240.06,240.06,0,0,1,198.76,269.12Z" transform="translate(-125.12 -121.71)"/><path class="cls-9" d="M296.41,326s71.4-.84,90.88-6.54,8.55-8.67,34.57-11.52,40.39-3.56,69.26,5.82,52.63,17.93,60.59,36.71S561.81,378,561.81,378s44.79,8.8,56.31,26,5.11,41.1,0,50.49-15.8,25.9-18.77,16.51,8.67-15.22-2.26-24.47c-3.29-2.79-4.14,1.46-17.66,7.68s-65.26-11.24-65.26-11.24-8.38,4.71-12.95,7.84c-25.74,17.63-87,12.59-108.26,12.59-62.93,0-92.15,38.74-108.07,32.2s-29.58-62.72-28.16-90.17-20.64-64.33-16.24-70.15S296.41,326,296.41,326Z" transform="translate(-125.12 -121.71)"/><g class="cls-10"><path class="cls-11" d="M510.81,397.75s0.07-2-2.69,8.37,0.36,21.26-5.12,40.39c-6.17,21.58,20.66,12.13,38.41,14.27s39.17,5.82,46.82-6.42,16.83-15.6,11-20.2S510.81,397.75,510.81,397.75Z" transform="translate(-125.12 -121.71)"/><g class="cls-12"><path class="cls-13" d="M572.62,430.26a13.74,13.74,0,0,0-16.41,4.42c-6.94,8.83-.63,24.61-0.63,24.61s-35.34-12-45.44-1.26-20.83,12.62-20.83-.63-1.89-66.9,6.31-68.79,50.49,22.72,56.8,25.88S572.62,430.26,572.62,430.26Z" transform="translate(-125.12 -121.71)"/><path class="cls-14" d="M581.62,442s-0.82,5.43-9.55,6.53-13.39-2.14-11.47-6.8,8.24-5.76,14.22-3.84S581.62,442,581.62,442Z" transform="translate(-125.12 -121.71)"/></g><path class="cls-15" d="M597.18,478.23s3.49-19.65.58-27.72-2.7-5.4-8.43-10.93S560.86,429,544.94,422a161,161,0,0,1-32.36-18.87c-4-3.2-1.65-23.12.55-43.32,1-8.92,13.33,6.52,28.09,1.65s40.91,6.85,53.63,15.2,41.85,24.27,41,41.56-3.2,37.19-13.59,46.71S597.18,478.23,597.18,478.23Z" transform="translate(-125.12 -121.71)"/><g class="cls-16"><path class="cls-17" d="M566.94,391.78c-18.65,6.65-1.4,37.47-1.4,37.47s6.08,9.64-14.12,5.58-62.1-21.7-60.59-39.89,5.48-48.43,16.13-51,55.11,20.65,62.14,24.72S605.51,378,566.94,391.78Z" transform="translate(-125.12 -121.71)"/><path class="cls-18" d="M581.45,392.4c-6.94,1.89-8.83,6.94-6.31,11.36s27.14,8.84,30.92,20.83,2.53,37.24,2.53,37.24A41.14,41.14,0,0,0,616.16,429C612.38,409.44,588.39,390.5,581.45,392.4Z" transform="translate(-125.12 -121.71)"/></g><path class="cls-13" d="M430.66,325.29s-2.88,4.67-3.46,16.19,17.62,10.36,24.24,23.93-3.16,17,2.89,34.34,19.62,14.15,28,31.45,13,30.29,13,30.29L485.78,467a54.42,54.42,0,0,0-4.63-28c-6.63-14.15-21-22.51-27.4-31.45s-3.47-14.41-5.21-29.72-1.16-13.57-11.25-20.77-10.94-6.63-13.26-16.15S430.66,325.29,430.66,325.29Z" transform="translate(-125.12 -121.71)"/><path class="cls-13" d="M479.89,420s-17.07,9.51-52.78,7.6-56.77-15.4-56.77-15.4,11,11.31,19.62,16.91,64.46,4.09,63.59,10.18-34.34,20.34-55.76,16.93-52.45-1.83-52.45-1.83,8.46,9.07,23.85,9.61,18.22-.18,41.55,5.43,70.63-16.11,78.76-16.64-5.06-30.49-5.06-30.49Z" transform="translate(-125.12 -121.71)"/><path class="cls-19" d="M423.7,343c-6.3-4.18-38.32,4.42-44.51,8.9-11.26,8.16-6,16.29-24.63,22.94-17.08,6.09-18.19,18.57-17.12,34.79,1.71,25.8,7.17,72.21,19.27,94.41L346,506.63c-10.92-19.93-7.52-45.49-10-67.8-2.75-24.47-13.45-57.84,17-68.84,14.85-5.35,12.73-14.54,23.2-22.23,7.24-5.32,44.77-15.64,51.14-8.22Z" transform="translate(-125.12 -121.71)"/><path class="cls-13" d="M529.07,385.9s19.13-.38,22.75,3.62-2.41,4.67-8.51,1.88-3.69-4-8.21-4S529.07,385.9,529.07,385.9Z" transform="translate(-125.12 -121.71)"/></g><path class="cls-13" d="M411.9,345.29s-19.62-2.58-28,6.94,0.84,17.57,6.63,12.68,2.63-9.79,7.52-13.26S411.9,345.29,411.9,345.29Z" transform="translate(-125.12 -121.71)"/><circle class="cls-20" cx="336.47" cy="223.48" r="14.64"/><g class="cls-21"><circle class="cls-19" cx="336.67" cy="223.07" r="5.99"/></g><circle class="cls-7" cx="341.47" cy="221.31" r="3.47"/><path class="cls-13" d="M479.53,354.12a18.9,18.9,0,0,1-16.89,11.2c-12.67.37-16.52-5.88-21.3-13.59a22.09,22.09,0,0,1-3.3-14.87s-3.68,8.08-2,14.5,11.75,9.55,14,14.32,5.87,6.24,14.5,5.87,14.32-9,15.06-12.3A9.41,9.41,0,0,0,479.53,354.12Z" transform="translate(-125.12 -121.71)"/><path class="cls-22" d="M456.47,373.87S468,380,480.9,365.48c6.33-19.71,9.9-15.79,15.83-13,14.28,6.72,2.48,6.25,15.44,8.1,10,1.43-4.36,36-4.36,57.91s7.64,24.38-1.65,34.48-18.53-3.55-25.29,11.57-12.74,9.15-37.16,11.64-5.64,12.59-32.55,15.09-26.33-10.84-40.66-1.55-31.63,1.58-33.28-3.49a43,43,0,0,1,1.9-30.18c5.87-13.44,2.09-.9,13.88,2.47s39.59,3.23,59.79,2.39,18.49,0.33,42.91-11.46,29.42-3.24,26-15.83S468.26,416.84,459,410.08s-6.72-24.38-7.56-31.14S456.47,373.87,456.47,373.87Z" transform="translate(-125.12 -121.71)"/><path class="cls-13" d="M470.76,427.38a82.92,82.92,0,0,1-38.64-6.76c-20.2-8.85-34.13-29.46-34.13-29.46s11.26,10.93,23.12,18.11,37.47,12.18,37.47,12.18-19-7.93-27.37-16.36-13.85-21-13.85-21A87.11,87.11,0,0,0,432.54,400c10.1,8.43,22.37,17.61,29.88,20.61a105.17,105.17,0,0,0,12.6,4.26Z" transform="translate(-125.12 -121.71)"/><path class="cls-9" d="M537.74,364.4s-21.85,2.76-39.84-7.89S467.61,331.17,457.51,329s-15.23-.93-29.74-3.86-15.06-5-24.06-8.44-7.89-1.65-7.89-1.65,2.21-5.13,22.4-7.89,30.47-7.89,57.28,0,58.93,19.26,69.58,38.19,20.58,27.92,16.16,34.15S537.74,364.4,537.74,364.4Z" transform="translate(-125.12 -121.71)"/><g class="cls-23"><path class="cls-13" d="M544.39,347s-6,17.35-27.7,11.65-36.77-21.49-51.53-27.71-11.65-1.29-32.88-7.25S401,298.54,401,298.54l-22,11.48s22,8.71,42.21,16.74,28.22,0.52,41.43,8,25.64,20.82,43,28.33,29.51,2.74,33.14-1.92S544.39,347,544.39,347Z" transform="translate(-125.12 -121.71)"/></g><path class="cls-24" d="M466.46,318.22s-5.62-1.32-7.51-8.54c-3.36-12.9-5.18-19.42,7.25-26.93s34.18-6,46.87,1.55,18.38,11.39,32.88,27.71,20.71,18.38,30.29,28.48,8.54,14,9.06,24.6,1.7,19.86,1.7,19.86-13-5.28-16.79,2.41c-3,6.11-11.83,4.4-21.93-2.07s-14-12.43-17.61-24.6-1-16.83-18.12-23.82S466.46,318.22,466.46,318.22Z" transform="translate(-125.12 -121.71)"/><g class="cls-25"><path class="cls-26" d="M468.82,293.65c-2.35-5.17,1.41-10.57,8.46-9.63s40.22,6.07,48.44,22.27,14,30.56,28.11,35.73,20.19,9.16,22.78,16.91,5.4,19.49,1.17,18.79-5.17-8.22-14.09-16.67S531.05,341.79,522.13,331s-9.63-16.67-23.48-20.67S471.17,298.82,468.82,293.65Z" transform="translate(-125.12 -121.71)"/></g><path class="cls-27" d="M225.44,304c-14.28-2.86-24.28,18.57-18.57,31.42,5.71,13.21-10,22.49-8.57,37.13,1.07,10,12.14,14.28,10,24.28-3.93,18.21-9.06,26.13,11.42,45.7,13,12.44,3.21,40.34,21.42,41.42,3.21,20,16.78,48.2,34.28,38.56,1.79,21.78,22.49,30.71,44.27,34.28,14.64,2.14,11.35,17.85,24.21,11.07,21.42-11.78,35.75-23.58,31.47-47.85-2.86-17.49,10.73-19.62-4.26-28.91C370,475,352.9,468.22,336.83,468.22c5.36-8.93,17-14.2,7.14-25.71-23.59-9.35-2.07-16-12.85-25.71-24.26-21.84-7.24-58.38-4-77.28,22.83-15.65,32.51-14.61,11.14-32.68-13.45-11.37-22.77-24.08-41.42-20C252.5,274.78,220.8,275.42,225.44,304Z" transform="translate(-125.12 -121.71)"/><path class="cls-28" d="M287.18,312.46c-4.88,8.29-14.56-7.74-22.85,7.31s14.56,16.09,13.1,24.31-15,4.88-15.54,21.39,18.95,26.2,22.36,35.46-12.68,13.65-5.36,34.55,20.41,20.83,26.75,29.61-2.37,30.72,5.85,38.45,20.9,14.07,20.9,14.07-14.56,1.4-25.29-8.78-8.84-29.19-13.65-41.31S260.91,449,256.53,435.91s12.68-22.85,9.75-35.46-20.9-19.5-25.29-30.65,7.74-22.3,12.61-30.59-4.88-12.12-3.9-21.39,5.85-17.62,13.16-18.53,21.87-1.46,23.83,5.36S292.05,304.17,287.18,312.46Z" transform="translate(-125.12 -121.71)"/><path class="cls-19" d="M468.82,293.65c-2.35-5.17,1.41-10.57,8.46-9.63s40.22,6.07,48.44,22.27,14,30.56,28.11,35.73,20.19,9.16,22.78,16.91,5.4,19.49,1.17,18.79-5.17-8.22-14.09-16.67S531.05,341.79,522.13,331s-9.63-16.67-23.48-20.67S471.17,298.82,468.82,293.65Z" transform="translate(-125.12 -121.71)"/><path class="cls-29" d="M446.59,336.09c-7.58,16.53,0,31,21.25,25.48Q439.65,361.42,446.59,336.09Z" transform="translate(-125.12 -121.71)"/></svg>